<svg id="SvgjsSvg1011" width="288" height="288" fill="#fff" stroke="#fff" xmlns="http://www.w3.org/2000/svg" version="1.1" xmlns:xlink="http://www.w3.org/1999/xlink" xmlns:svgjs="http://svgjs.com/svgjs"><defs id="SvgjsDefs1012"></defs><g id="SvgjsG1013"><svg xmlns="http://www.w3.org/2000/svg" viewBox="0 0 124 124" width="288" height="288"><path fill="#ffffff" fill-rule="evenodd" d="M50.1 62.4v44.4c0 .6.5 1.2 1.2 1.2h16.5c.6 0 1.2-.5 1.2-1.2V61.6h11.9c.6 0 1.1-.5 1.2-1.1l1-13.5c.1-.7-.5-1.3-1.2-1.3h-13v-9.6c0-2.3 1.8-4.1 4.1-4.1h9.2c.6 0 1.2-.5 1.2-1.2V17.3c0-.6-.5-1.2-1.2-1.2H66.6c-9.1 0-16.5 7.4-16.5 16.5v13.1h-8.2c-.6 0-1.2.5-1.2 1.2v13.6c0 .6.5 1.2 1.2 1.2h8.2v.7z" clip-rule="evenodd" class="color333033 svgShape"></path></svg></g></svg>