<svg id="SvgjsSvg1030" width="288" height="288" xmlns="http://www.w3.org/2000/svg" version="1.1" xmlns:xlink="http://www.w3.org/1999/xlink" xmlns:svgjs="http://svgjs.com/svgjs"><defs id="SvgjsDefs1031"></defs><g id="SvgjsG1032"><svg xmlns="http://www.w3.org/2000/svg" fill-rule="evenodd" clip-rule="evenodd" image-rendering="optimizeQuality" shape-rendering="geometricPrecision" text-rendering="geometricPrecision" viewBox="0 0 13333.33 13333.33" width="288" height="288"><path fill="#ffffff" d="M4365.91 2471.84l4601.51 0c1029.13,0 1869.24,842.02 1869.24,1869.25l0 4649.24c0,1029.14 -840.11,1871.15 -1869.24,1871.15l-4601.51 0c-1027.22,0 -1869.25,-842.02 -1869.25,-1871.15l0 -4649.24c0,-1027.23 842.02,-1869.25 1869.25,-1869.25z" class="color000102 svgShape"></path><path fill="#ffffff" d="M8196.04 3877.12l-3058.76 0c-683.55,0 -1242.98,559.44 -1242.98,1242.98l0 3091.22c0,683.55 559.43,1242.98 1242.98,1242.98l3058.76 0c683.54,0 1242.98,-559.44 1242.98,-1242.98l0 -3091.22c0,-683.55 -559.44,-1242.98 -1242.98,-1242.98zm729.37 4047.8l0 0c0,555.62 -456.33,1011.95 -1011.95,1011.95l-2491.69 0c-557.53,0 -1011.95,-456.33 -1011.95,-1011.95l0 -2516.51c0,-557.53 454.42,-1011.95 1011.95,-1011.95l2491.69 0c555.62,0 1011.95,454.42 1011.95,1011.95l0 2516.51z" class="colorfff svgShape"></path><path fill="#ffffff" fill-rule="nonzero" d="M6666.67 5290.03c-758.01,0 -1374.73,618.63 -1374.73,1376.63 0,758.01 616.72,1374.73 1374.73,1374.73 758,0 1376.63,-616.72 1376.63,-1374.73 0,-758.01 -618.63,-1376.63 -1376.63,-1376.63zm0 2287.39l0 0c-502.16,0 -910.76,-408.6 -910.76,-910.76 0,-502.16 408.6,-910.75 910.76,-910.75 502.15,0 910.75,408.59 910.75,910.75 0,502.16 -408.6,910.76 -910.75,910.76z" class="colorfff svgShape"></path><path fill="#ffffff" d="M9436.86 3868.69c156.56,0 282.58,-126.02 282.58,-280.67 0,-156.56 -126.02,-282.58 -282.58,-282.58 -154.66,0 -280.67,126.02 -280.67,282.58 0,154.66 126.02,280.67 280.67,280.67z" class="colorfff svgShape"></path><rect width="13333.33" height="13333.33" fill="none"></rect></svg></g></svg>